<?xml version="1.0" encoding="UTF-8"?>
<svg xmlns="http://www.w3.org/2000/svg" xmlns:xlink="http://www.w3.org/1999/xlink" width="117px" height="50px" viewBox="0 0 118 50" version="1.1">
<defs>
<linearGradient id="linear0" gradientUnits="userSpaceOnUse" x1="48.5805" y1="18" x2="84.5805" y2="18" gradientTransform="matrix(1.388235,0,0,1.388889,0.277647,0)">
<stop offset="0" style="stop-color:rgb(2.745098%,18.431373%,72.54902%);stop-opacity:1;"/>
<stop offset="0.6699" style="stop-color:rgb(4.705882%,77.647059%,78.823529%);stop-opacity:1;"/>
<stop offset="1" style="stop-color:rgb(10.196078%,89.411765%,71.372549%);stop-opacity:1;"/>
</linearGradient>
<linearGradient id="linear1" gradientUnits="userSpaceOnUse" x1="1197.4021" y1="324.6435" x2="1230.8662" y2="324.6435" gradientTransform="matrix(0,1.388889,-1.388235,0,543.388612,-1661.2975)">
<stop offset="0" style="stop-color:rgb(100%,100%,100%);stop-opacity:0.8;"/>
<stop offset="0.6699" style="stop-color:rgb(100%,100%,100%);stop-opacity:0;"/>
</linearGradient>
</defs>
<g id="surface1">
<path style=" stroke:none;fill-rule:nonzero;fill:rgb(2.352941%,0.392157%,7.45098%);fill-opacity:1;" d="M 34.984375 17.222656 L 25.542969 17.222656 C 25.40625 17.222656 25.128906 17.359375 25.128906 17.640625 L 25.128906 32.5 C 25.128906 32.640625 25.265625 32.917969 25.542969 32.917969 L 34.984375 32.917969 C 35.121094 32.917969 35.398438 32.777344 35.398438 32.5 L 35.398438 31.667969 C 35.398438 31.527344 35.261719 31.25 34.984375 31.25 L 26.652344 31.25 L 26.652344 25.277344 L 33.457031 25.277344 C 33.59375 25.277344 33.871094 25.140625 33.871094 24.859375 L 33.871094 24.167969 C 33.871094 24.027344 33.734375 23.75 33.457031 23.75 L 26.652344 23.75 L 26.652344 18.890625 L 34.984375 18.890625 C 35.121094 18.890625 35.398438 18.75 35.398438 18.472656 L 35.398438 17.640625 C 35.398438 17.359375 35.261719 17.222656 34.984375 17.222656 Z M 34.984375 17.222656 "/>
<path style=" stroke:none;fill-rule:nonzero;fill:rgb(2.352941%,0.392157%,7.45098%);fill-opacity:1;" d="M 23.183594 31.25 L 14.855469 31.25 L 14.855469 17.640625 C 14.855469 17.5 14.714844 17.222656 14.4375 17.222656 L 13.742188 17.222656 C 13.605469 17.222656 13.328125 17.359375 13.328125 17.640625 L 13.328125 32.359375 C 13.328125 32.5 13.464844 32.777344 13.742188 32.777344 L 23.183594 32.777344 C 23.324219 32.777344 23.601562 32.640625 23.601562 32.359375 L 23.601562 31.527344 C 23.601562 31.390625 23.460938 31.25 23.183594 31.25 Z M 23.183594 31.25 "/>
<path style=" stroke:none;fill-rule:nonzero;fill:rgb(2.352941%,0.392157%,7.45098%);fill-opacity:1;" d="M 6.664062 17.222656 L 0.695312 17.222656 C 0.554688 17.222656 0.277344 17.359375 0.277344 17.640625 L 0.277344 32.359375 C 0.277344 32.5 0.417969 32.777344 0.695312 32.777344 L 1.527344 32.777344 C 1.664062 32.777344 1.945312 32.640625 1.945312 32.359375 L 1.945312 25.972656 L 8.328125 25.972656 C 9.441406 25.832031 11.800781 24.859375 11.800781 21.667969 C 11.800781 18.332031 8.605469 17.222656 6.664062 17.222656 Z M 6.941406 24.445312 L 1.804688 24.445312 L 1.804688 18.890625 L 6.941406 18.890625 C 8.605469 18.890625 10.132812 20 10.132812 21.667969 C 10.132812 23.609375 9.164062 24.445312 6.941406 24.445312 Z M 6.941406 24.445312 "/>
<path style=" stroke:none;fill-rule:nonzero;fill:rgb(2.352941%,0.392157%,7.45098%);fill-opacity:1;" d="M 49.976562 17.640625 C 50.117188 17.5 49.976562 17.222656 49.835938 17.222656 L 48.726562 17.222656 C 48.589844 17.222656 48.449219 17.359375 48.3125 17.5 L 46.507812 19.859375 L 46.367188 20 L 43.453125 23.890625 L 40.535156 20 L 40.535156 19.722656 L 38.730469 17.359375 C 38.59375 17.222656 38.453125 17.082031 38.316406 17.082031 L 37.203125 17.082031 C 37.066406 17.082031 36.925781 17.222656 37.066406 17.5 L 39.285156 20.417969 L 42.617188 24.859375 L 39.285156 29.304688 L 37.066406 32.222656 C 36.925781 32.359375 37.066406 32.640625 37.203125 32.640625 L 38.316406 32.640625 C 38.453125 32.640625 38.59375 32.5 38.730469 32.359375 L 40.535156 30 L 40.675781 29.859375 L 43.589844 25.972656 L 46.507812 29.859375 L 46.644531 30 L 48.449219 32.359375 C 48.589844 32.5 48.726562 32.640625 48.867188 32.640625 L 49.976562 32.640625 C 50.117188 32.640625 50.253906 32.5 50.117188 32.222656 L 47.894531 29.304688 L 44.421875 25 L 47.753906 20.554688 Z M 49.976562 17.640625 "/>
<path style=" stroke:none;fill-rule:nonzero;fill:rgb(2.352941%,0.392157%,7.45098%);fill-opacity:1;" d="M 64.273438 17.222656 L 63.164062 17.222656 C 63.027344 17.222656 62.886719 17.359375 62.75 17.5 L 60.945312 19.859375 L 60.804688 20 L 57.890625 23.890625 L 54.972656 20 L 54.835938 19.859375 L 53.03125 17.5 C 52.890625 17.359375 52.753906 17.222656 52.613281 17.222656 L 51.503906 17.222656 C 51.363281 17.222656 51.226562 17.359375 51.363281 17.640625 L 53.585938 20.554688 L 57.195312 25 L 57.335938 25.140625 L 57.335938 32.359375 C 57.335938 32.640625 57.472656 32.777344 57.75 32.777344 L 58.582031 32.777344 C 58.859375 32.777344 59 32.640625 59 32.359375 L 59 25.140625 L 59.140625 25 L 62.46875 20.554688 L 64.691406 17.640625 C 64.554688 17.359375 64.554688 17.222656 64.273438 17.222656 Z M 64.273438 17.222656 "/>
<path style=" stroke:none;fill-rule:nonzero;fill:url(#linear0);" d="M 117.722656 25 C 117.722656 38.808594 106.535156 50 92.734375 50 C 78.933594 50 67.746094 38.808594 67.746094 25 C 67.746094 11.191406 78.933594 0 92.734375 0 C 106.535156 0 117.722656 11.191406 117.722656 25 Z M 117.722656 25 "/>
<path style=" stroke:none;fill-rule:nonzero;fill:url(#linear1);" d="M 115.917969 25 C 115.917969 37.808594 105.539062 48.195312 92.734375 48.195312 C 79.929688 48.195312 69.550781 37.808594 69.550781 25 C 69.550781 12.191406 79.929688 1.804688 92.734375 1.804688 C 105.539062 1.804688 115.917969 12.191406 115.917969 25 Z M 115.917969 25 "/>
<path style=" stroke:none;fill-rule:nonzero;fill:rgb(100%,100%,100%);fill-opacity:1;" d="M 110.640625 17.222656 L 107.3125 17.222656 C 107.171875 17.222656 107.03125 17.359375 107.03125 17.5 L 104.117188 23.332031 L 101.203125 17.5 C 101.203125 17.359375 101.0625 17.222656 100.925781 17.222656 L 97.59375 17.222656 C 97.453125 17.222656 97.316406 17.359375 97.316406 17.640625 L 102.453125 26.527344 L 102.453125 32.359375 C 102.453125 32.5 102.589844 32.777344 102.867188 32.777344 L 105.367188 32.777344 C 105.507812 32.777344 105.785156 32.640625 105.785156 32.359375 L 105.785156 26.527344 L 110.921875 17.640625 C 111.058594 17.5 110.921875 17.222656 110.640625 17.222656 Z M 110.640625 17.222656 "/>
<path style=" stroke:none;fill-rule:nonzero;fill:rgb(100%,100%,100%);fill-opacity:1;" d="M 93.84375 17.222656 L 90.789062 17.222656 C 90.652344 17.222656 90.511719 17.359375 90.375 17.5 L 84.960938 32.359375 C 84.960938 32.5 84.960938 32.640625 85.238281 32.640625 L 87.875 32.640625 C 88.015625 32.640625 88.152344 32.5 88.292969 32.359375 L 89.402344 29.445312 L 95.09375 29.445312 L 96.203125 32.359375 C 96.203125 32.5 96.34375 32.640625 96.621094 32.640625 L 99.257812 32.640625 C 99.398438 32.640625 99.535156 32.5 99.535156 32.359375 L 94.398438 17.5 C 94.121094 17.359375 93.984375 17.222656 93.84375 17.222656 Z M 90.375 26.667969 L 92.179688 21.945312 L 93.984375 26.667969 Z M 90.375 26.667969 "/>
<path style=" stroke:none;fill-rule:nonzero;fill:rgb(100%,100%,100%);fill-opacity:1;" d="M 80.933594 17.222656 L 74.824219 17.222656 C 74.6875 17.222656 74.410156 17.359375 74.410156 17.640625 L 74.410156 32.359375 C 74.410156 32.5 74.546875 32.777344 74.824219 32.777344 L 77.464844 32.777344 C 77.601562 32.777344 77.878906 32.640625 77.878906 32.359375 L 77.878906 27.222656 C 77.878906 27.222656 78.15625 27.222656 80.933594 27.222656 C 84.265625 27.222656 86.347656 24.859375 86.347656 22.359375 C 86.347656 19.859375 84.265625 17.222656 80.933594 17.222656 Z M 81.210938 24.167969 L 77.878906 24.167969 L 77.878906 20.277344 L 81.210938 20.277344 C 82.460938 20.277344 83.433594 21.109375 83.433594 22.222656 C 83.433594 23.472656 82.460938 24.167969 81.210938 24.167969 Z M 81.210938 24.167969 "/>
</g>
</svg>
