<svg width="208" height="64" viewBox="0 0 208 64" fill="none" xmlns="http://www.w3.org/2000/svg">
<g clip-path="url(#clip0_327_115535)">
<path d="M18.2809 46.6655C18.7346 46.6655 19.1024 46.2977 19.1024 45.844V44.2051C19.1024 43.7514 18.7346 43.3836 18.2809 43.3836H3.40814V32.5701H21.6049C22.0586 32.5701 22.4264 32.2023 22.4264 31.7486V30.0676C22.4264 29.6139 22.0586 29.2461 21.6049 29.2461H0.821529C0.367811 29.2461 0 29.6139 0 30.0676V62.4639C0 62.9176 0.367811 63.2854 0.821529 63.2854H2.58661C3.04033 63.2854 3.40814 62.9176 3.40814 62.4639V46.6655H18.2809Z" fill="#060113"/>
<path d="M38.9371 28.5723C34.4771 28.5723 30.4799 30.1291 27.6187 33.0323C24.5472 36.2301 22.9062 40.7743 22.9062 46.2862C22.9062 57.0576 29.1755 64.0001 38.9371 64.0001C46.6791 64.0001 54.968 59.3297 54.968 46.2862C54.968 35.3465 48.6567 28.5723 38.9371 28.5723ZM38.9371 60.5499C32.752 60.5499 26.3565 56.8052 26.3565 46.2862C26.3565 36.0618 32.752 32.0225 38.9371 32.0225C45.0802 32.0225 51.4758 35.6831 51.4758 46.2862C51.4758 55.4167 46.8053 60.5499 38.9371 60.5499Z" fill="#060113"/>
<path d="M84.8753 38.8394C84.8753 31.6865 78.0169 29.2461 73.7252 29.2461L60.4909 29.2857C60.0382 29.2871 59.6719 29.6545 59.6719 30.1072V62.506C59.6719 62.9597 60.0397 63.3275 60.4934 63.3275H62.3426C62.7964 63.3275 63.1642 62.9597 63.1642 62.506V48.4327H65.7729H77.3017C79.8262 48.054 84.8753 45.9923 84.8753 38.8394ZM74.3984 44.9825H63.1642V32.7805H74.3984C78.059 32.7805 81.4251 35.1788 81.4251 38.8394C81.4251 43.1732 79.0688 44.9825 74.3984 44.9825Z" fill="#060113"/>
<path d="M73.3465 48.4327L81.3171 62.9024C81.4616 63.1646 81.7373 63.3275 82.0367 63.3275H84.659C85.0768 63.3275 85.3407 62.8786 85.1376 62.5135L77.3017 48.4327H73.3465Z" fill="#060113"/>
<path d="M104.773 28.5723C100.313 28.5723 96.3158 30.1291 93.4547 33.0323C90.3831 36.2301 88.7422 40.7743 88.7422 46.2862C88.7422 57.0576 95.0115 64.0001 104.773 64.0001C112.515 64.0001 120.804 59.3297 120.804 46.2862C120.804 35.3465 114.493 28.5723 104.773 28.5723ZM104.773 60.5499C98.5879 60.5499 92.1924 56.8052 92.1924 46.2862C92.1924 36.0618 98.5879 32.0225 104.773 32.0225C110.916 32.0225 117.312 35.6831 117.312 46.2862C117.312 55.4167 112.641 60.5499 104.773 60.5499Z" fill="#060113"/>
<path d="M200.185 29.2461C199.872 29.2461 199.586 29.424 199.448 29.7049L193.109 42.5841L186.771 29.7049C186.633 29.424 186.347 29.2461 186.034 29.2461H178.861C178.441 29.2461 178.177 29.6991 178.385 30.0642L189.533 49.695V62.4639C189.533 62.9176 189.901 63.2854 190.355 63.2854H195.864C196.318 63.2854 196.686 62.9176 196.686 62.4639V49.695L207.874 30.065C208.082 29.6999 207.819 29.2461 207.398 29.2461H200.185Z" fill="#060113"/>
<path d="M175.439 62.7539C175.56 63.0737 175.866 63.2854 176.208 63.2854H182.065C182.442 63.2854 182.706 62.9144 182.583 62.5586L171.245 29.7989C171.13 29.468 170.818 29.2461 170.468 29.2461H163.717C163.372 29.2461 163.064 29.4611 162.945 29.7845L150.917 62.549C150.786 62.9065 151.05 63.2854 151.431 63.2854H157.231C157.573 63.2854 157.879 63.0737 158 62.7539L160.45 56.2588H172.989L175.439 62.7539ZM162.806 49.9895L166.719 39.6388L170.633 49.9895H162.806Z" fill="#060113"/>
<path d="M128.618 29.2461C128.165 29.2461 127.797 29.6139 127.797 30.0676V62.4639C127.797 62.9176 128.165 63.2854 128.618 63.2854H134.507C134.961 63.2854 135.328 62.9176 135.328 62.4639V51.0414C135.328 51.0414 134.866 51.0414 142.061 51.0414C149.466 51.0414 153.968 45.866 153.968 40.2279C153.968 34.5897 149.466 29.2461 142.019 29.2461H128.618ZM142.608 44.4355H135.328V35.852H142.608C145.258 35.852 147.362 37.5771 147.362 40.2279C147.362 42.8366 145.258 44.4355 142.608 44.4355Z" fill="#060113"/>
<path fill-rule="evenodd" clip-rule="evenodd" d="M120.49 10.954C107.96 10.9158 97.4988 15.4379 91.8223 19.1412C90.8089 19.8023 89.4387 19.6168 88.7063 18.6538L84.7277 13.4226C83.9952 12.4596 84.1768 11.084 85.1788 10.4057C92.3426 5.55608 105.152 -0.0444068 120.515 0.000265529C130.856 0.00160592 144.638 2.52704 156.444 10.352C157.452 11.0204 157.671 12.3944 156.963 13.375L153.113 18.7014C152.404 19.682 151.037 19.8975 150.022 19.2394C140.559 13.1069 129.249 10.954 120.506 10.954H120.498L120.49 10.954Z" fill="url(#paint0_linear_327_115535)"/>
</g>
<defs>
<linearGradient id="paint0_linear_327_115535" x1="79.3035" y1="9.8086" x2="153.807" y2="21.0918" gradientUnits="userSpaceOnUse">
<stop stop-color="#072FB9"/>
<stop offset="0.669859" stop-color="#0CC6C9"/>
<stop offset="1" stop-color="#1AE4B6"/>
</linearGradient>
<clipPath id="clip0_327_115535">
<rect width="208" height="64" fill="white"/>
</clipPath>
</defs>
</svg>
